<?xml version="1.0" standalone="no"?>
<!DOCTYPE svg PUBLIC "-//W3C//DTD SVG 20010904//EN"
 "http://www.w3.org/TR/2001/REC-SVG-20010904/DTD/svg10.dtd">
<svg version="1.0" xmlns="http://www.w3.org/2000/svg"
 width="700.000000pt" height="700.000000pt" viewBox="0 0 700.000000 700.000000"
 preserveAspectRatio="xMidYMid meet">
<metadata>
Created by potrace 1.11, written by Peter Selinger 2001-2013
</metadata>
<g transform="translate(0.000000,700.000000) scale(0.100000,-0.100000)"
fill="#000000" stroke="none">
<path d="M3378 6415 c-2 -2 -46 -5 -98 -9 -52 -3 -117 -8 -145 -12 -49 -6
-280 -48 -320 -58 -153 -38 -340 -101 -464 -155 -284 -126 -478 -246 -741
-459 -80 -64 -303 -294 -381 -392 -164 -206 -318 -461 -404 -670 -14 -36 -32
-78 -40 -95 -38 -84 -110 -325 -139 -465 -46 -226 -60 -366 -60 -600 0 -171 8
-288 29 -425 93 -619 372 -1177 805 -1615 139 -141 186 -183 315 -281 61 -47
204 -145 240 -165 11 -6 49 -28 85 -49 215 -123 493 -236 720 -291 96 -23 200
-44 265 -54 44 -6 91 -13 105 -16 104 -17 432 -24 586 -11 372 30 762 142
1099 315 131 67 307 176 400 247 327 249 605 561 792 890 181 319 289 622 352
990 39 227 46 595 16 825 -13 91 -37 227 -50 280 -8 30 -16 66 -19 80 -3 14
-12 50 -21 80 -9 30 -17 62 -19 70 -2 8 -23 67 -46 130 -256 699 -779 1283
-1439 1610 -103 51 -235 110 -246 110 -4 0 -21 6 -38 14 -67 30 -286 94 -412
120 -79 16 -248 42 -345 52 -61 6 -377 13 -382 9z m299 -590 c56 -3 108 -7
115 -10 7 -2 32 -6 55 -9 22 -3 52 -8 65 -10 12 -3 34 -8 48 -10 245 -41 580
-178 820 -336 597 -395 980 -1035 1045 -1750 6 -71 7 -363 1 -395 -2 -11 -7
-51 -12 -90 -4 -38 -8 -72 -9 -75 0 -3 -5 -27 -10 -55 -5 -27 -9 -52 -10 -55
0 -3 -5 -23 -10 -45 -12 -58 -12 -56 -25 -105 -47 -176 -145 -403 -244 -569
-377 -629 -1003 -1036 -1730 -1127 -123 -15 -368 -20 -486 -9 -990 93 -1823
810 -2055 1770 -24 102 -29 125 -45 230 -19 132 -30 450 -16 520 2 11 7 52 11
90 11 116 54 301 106 459 202 616 683 1140 1279 1396 247 105 522 172 773 186
62 4 113 7 114 8 3 3 85 -1 220 -9z"/>
<path d="M3410 4943 c-79 -27 -133 -75 -175 -157 l-25 -50 3 -660 2 -661 24
-45 c32 -61 83 -108 148 -136 l55 -24 651 2 652 3 47 23 c58 29 108 79 139
140 32 65 32 176 0 243 -28 59 -81 112 -140 141 -46 23 -50 23 -523 26 l-477
3 -3 477 -3 477 -24 48 c-63 128 -219 195 -351 150z"/>
</g>
</svg>
