<?xml version="1.0" encoding="UTF-8"?>
<svg width="32px" height="32px" viewBox="0 0 32 32" version="1.1" xmlns="http://www.w3.org/2000/svg" xmlns:xlink="http://www.w3.org/1999/xlink">
    <title>favicon-on</title>
    <g id="favicon-on" stroke="none" stroke-width="1" fill="none" fill-rule="evenodd">
        <g id="favicon" fill-rule="nonzero">
            <rect id="Rectangle" fill="#1B335F" opacity="0" transform="translate(16.000000, 16.000000) rotate(180.000000) translate(-16.000000, -16.000000) " x="-2.36847579e-15" y="2.36847579e-15" width="32" height="32"></rect>
            <path d="M16,2.66666667 C8.63620334,2.66666667 2.66666667,8.63620334 2.66666667,16 C2.66666667,23.3637967 8.63620334,29.3333333 16,29.3333333 C23.3637967,29.3333333 29.3333333,23.3637967 29.3333333,16 C29.3333333,12.4637801 27.9285755,9.07239463 25.4280904,6.57190958 C22.9276054,4.07142454 19.5362199,2.66666667 16,2.66666667 Z M16,26.6666667 C10.1089627,26.6666667 5.33333333,21.8910373 5.33333333,16 C5.33333333,10.1089627 10.1089627,5.33333333 16,5.33333333 C21.8910373,5.33333333 26.6666667,10.1089627 26.6666667,16 C26.6666667,18.8289759 25.5428604,21.5420843 23.5424723,23.5424723 C21.5420843,25.5428604 18.8289759,26.6666667 16,26.6666667 Z" id="Shape" fill="#FD4444"></path>
        </g>
        <path d="M18.2741596,12.0124882 L23.0079692,19.9021709 C23.2921174,20.3757512 23.1385523,20.9900114 22.664972,21.2741596 C22.5095566,21.3674088 22.3317202,21.4166667 22.1504763,21.4166667 L12.682857,21.4166667 C12.1305723,21.4166667 11.682857,20.9689514 11.682857,20.4166667 C11.682857,20.2354227 11.7321149,20.0575863 11.8253641,19.9021709 L16.5591737,12.0124882 C16.8433219,11.5389079 17.4575822,11.3853429 17.9311624,11.669491 C18.071912,11.7539408 18.1897098,11.8717386 18.2741596,12.0124882 Z" id="Triangle" fill="#FD4444" transform="translate(17.416667, 16.000000) rotate(-270.000000) translate(-17.416667, -16.000000) "></path>
    </g>
</svg>